<?xml version="1.0" encoding="utf-8" standalone="no"?>
<!DOCTYPE svg PUBLIC "-//W3C//DTD SVG 1.1//EN"
  "http://www.w3.org/Graphics/SVG/1.1/DTD/svg11.dtd">
<svg xmlns:xlink="http://www.w3.org/1999/xlink" width="458.739944pt" height="170.985437pt" viewBox="0 0 458.739944 170.985437" xmlns="http://www.w3.org/2000/svg" version="1.1">
 <metadata>
  <rdf:RDF xmlns:dc="http://purl.org/dc/elements/1.1/" xmlns:cc="http://creativecommons.org/ns#" xmlns:rdf="http://www.w3.org/1999/02/22-rdf-syntax-ns#">
   <cc:Work>
    <dc:type rdf:resource="http://purl.org/dc/dcmitype/StillImage"/>
    <dc:date>2026-06-30T15:57:46.388648</dc:date>
    <dc:format>image/svg+xml</dc:format>
    <dc:creator>
     <cc:Agent>
      <dc:title>Matplotlib v3.6.3, https://matplotlib.org/</dc:title>
     </cc:Agent>
    </dc:creator>
   </cc:Work>
  </rdf:RDF>
 </metadata>
 <defs>
  <style type="text/css">*{stroke-linejoin: round; stroke-linecap: butt}</style>
 </defs>
 <g id="figure_1">
  <g id="patch_1">
   <path d="M 0 170.985437 
L 458.739944 170.985437 
L 458.739944 0 
L 0 0 
z
" style="fill: #ffffff"/>
  </g>
  <g id="axes_1">
   <g id="patch_2">
    <path d="M 43.99 137.349187 
L 211.087196 137.349187 
L 211.087196 19.053187 
L 43.99 19.053187 
z
" style="fill: #ffffff"/>
   </g>
   <g id="matplotlib.axis_1">
    <g id="xtick_1">
     <g id="line2d_1">
      <defs>
       <path id="m316a27e807" d="M 0 0 
L 0 3.2 
" style="stroke: #111827; stroke-width: 0.85"/>
      </defs>
      <g>
       <use xlink:href="#m316a27e807" x="43.99" y="137.349187" style="fill: #111827; stroke: #111827; stroke-width: 0.85"/>
      </g>
     </g>
     <g id="text_1">
      <text style="fill: #111827; font: 8px 'Helvetica', 'Nimbus Sans', 'Arial', 'DejaVu Sans', sans-serif; text-anchor: middle" x="43.99" y="149.881687" transform="rotate(-0 43.99 149.881687)">0</text>
     </g>
    </g>
    <g id="xtick_2">
     <g id="line2d_2">
      <g>
       <use xlink:href="#m316a27e807" x="98.934171" y="137.349187" style="fill: #111827; stroke: #111827; stroke-width: 0.85"/>
      </g>
     </g>
     <g id="text_2">
      <text style="fill: #111827; font: 8px 'Helvetica', 'Nimbus Sans', 'Arial', 'DejaVu Sans', sans-serif; text-anchor: middle" x="98.934171" y="149.881687" transform="rotate(-0 98.934171 149.881687)">50</text>
     </g>
    </g>
    <g id="xtick_3">
     <g id="line2d_3">
      <g>
       <use xlink:href="#m316a27e807" x="153.878342" y="137.349187" style="fill: #111827; stroke: #111827; stroke-width: 0.85"/>
      </g>
     </g>
     <g id="text_3">
      <text style="fill: #111827; font: 8px 'Helvetica', 'Nimbus Sans', 'Arial', 'DejaVu Sans', sans-serif; text-anchor: middle" x="153.878342" y="149.881687" transform="rotate(-0 153.878342 149.881687)">100</text>
     </g>
    </g>
    <g id="xtick_4">
     <g id="line2d_4">
      <g>
       <use xlink:href="#m316a27e807" x="208.822514" y="137.349187" style="fill: #111827; stroke: #111827; stroke-width: 0.85"/>
      </g>
     </g>
     <g id="text_4">
      <text style="fill: #111827; font: 8px 'Helvetica', 'Nimbus Sans', 'Arial', 'DejaVu Sans', sans-serif; text-anchor: middle" x="208.822514" y="149.881687" transform="rotate(-0 208.822514 149.881687)">150</text>
     </g>
    </g>
    <g id="text_5">
     <!-- Distance from RP, $x$ (nm) -->
     <g style="fill: #111827" transform="translate(79.811098 161.915437)">
      <text>
       <tspan style="font: 8.5px 'Nimbus Sans'" x="0 6.136993 8.023987 12.273987 14.636978 19.362976 24.088974 28.338974 33.064972 35.427963 37.790955 40.621445 45.347443 52.427948 54.790939 60.927933 66.597427 68.960419 75.57341 77.936401 80.766891 85.492889 92.573395" y="-0.78125">Distance from RP,  (nm)</tspan>
       <tspan style="font: italic 8.5px 'Nimbus Sans'" x="71.32341" y="-0.78125">x</tspan>
      </text>
     </g>
    </g>
   </g>
   <g id="matplotlib.axis_2">
    <g id="ytick_1">
     <g id="line2d_5">
      <defs>
       <path id="m8953af3e18" d="M 0 0 
L -3.2 0 
" style="stroke: #111827; stroke-width: 0.85"/>
      </defs>
      <g>
       <use xlink:href="#m8953af3e18" x="43.99" y="113.451006" style="fill: #111827; stroke: #111827; stroke-width: 0.85"/>
      </g>
     </g>
     <g id="text_6">
      <text style="fill: #111827; font: 8px 'Helvetica', 'Nimbus Sans', 'Arial', 'DejaVu Sans', sans-serif; text-anchor: end" x="37.29" y="116.367256" transform="rotate(-0 37.29 116.367256)">−150</text>
     </g>
    </g>
    <g id="ytick_2">
     <g id="line2d_6">
      <g>
       <use xlink:href="#m8953af3e18" x="43.99" y="83.578278" style="fill: #111827; stroke: #111827; stroke-width: 0.85"/>
      </g>
     </g>
     <g id="text_7">
      <text style="fill: #111827; font: 8px 'Helvetica', 'Nimbus Sans', 'Arial', 'DejaVu Sans', sans-serif; text-anchor: end" x="37.29" y="86.494528" transform="rotate(-0 37.29 86.494528)">−100</text>
     </g>
    </g>
    <g id="ytick_3">
     <g id="line2d_7">
      <g>
       <use xlink:href="#m8953af3e18" x="43.99" y="53.705551" style="fill: #111827; stroke: #111827; stroke-width: 0.85"/>
      </g>
     </g>
     <g id="text_8">
      <text style="fill: #111827; font: 8px 'Helvetica', 'Nimbus Sans', 'Arial', 'DejaVu Sans', sans-serif; text-anchor: end" x="37.29" y="56.621801" transform="rotate(-0 37.29 56.621801)">−50</text>
     </g>
    </g>
    <g id="ytick_4">
     <g id="line2d_8">
      <g>
       <use xlink:href="#m8953af3e18" x="43.99" y="23.832824" style="fill: #111827; stroke: #111827; stroke-width: 0.85"/>
      </g>
     </g>
     <g id="text_9">
      <text style="fill: #111827; font: 8px 'Helvetica', 'Nimbus Sans', 'Arial', 'DejaVu Sans', sans-serif; text-anchor: end" x="37.29" y="26.749074" transform="rotate(-0 37.29 26.749074)">0</text>
     </g>
    </g>
    <g id="text_10">
     <!-- $\phi(x)$ (mV) -->
     <g style="fill: #111827" transform="translate(13.405 95.923687) rotate(-90)">
      <text>
       <tspan style="font: italic 8.5px 'Nimbus Sans'" x="0 7.556488" y="-0.796875">ϕx</tspan>
       <tspan style="font: 8.5px 'Nimbus Sans'" x="4.725998 11.806488 14.636978 16.999969 19.83046 26.910965 32.58046" y="-0.796875">() (mV)</tspan>
      </text>
     </g>
    </g>
   </g>
   <g id="line2d_9">
    <path d="M 43.99 131.069549 
L 46.7816 122.475753 
L 49.5732 114.570652 
L 52.3648 107.299054 
L 55.1564 100.610191 
L 57.948 94.457364 
L 60.7396 88.797616 
L 63.5312 83.591431 
L 66.3228 78.802463 
L 69.513199 73.797467 
L 72.703599 69.248177 
L 75.893999 65.113101 
L 79.084399 61.354524 
L 82.274799 57.938167 
L 85.465199 54.832869 
L 88.655599 52.010309 
L 92.244799 49.140929 
L 95.833999 46.563744 
L 99.423199 44.249 
L 103.411199 41.952453 
L 107.399199 39.914236 
L 111.785998 37.935988 
L 116.172798 36.201093 
L 120.958398 34.550948 
L 126.142798 33.010783 
L 131.725998 31.598709 
L 137.707998 30.325942 
L 144.088798 29.197371 
L 151.267198 28.160432 
L 159.243197 27.241594 
L 168.016797 26.45452 
L 178.385597 25.755194 
L 190.349597 25.176708 
L 205.105196 24.697013 
L 211.087196 24.555379 
L 211.087196 24.555379 
" clip-path="url(#pc91a1cab11)" style="fill: none; stroke: #481d6f; stroke-width: 2; stroke-linecap: square"/>
   </g>
   <g id="line2d_10">
    <path d="M 43.99 111.605972 
L 45.629451 98.993213 
L 47.268902 88.192873 
L 48.908354 78.944512 
L 50.547805 71.025115 
L 52.187256 64.243714 
L 53.826707 58.436781 
L 55.466158 53.464288 
L 57.10561 49.206328 
L 58.745061 45.560226 
L 60.384512 42.438058 
L 62.023963 39.764538 
L 63.789526 37.313365 
L 65.555089 35.239318 
L 67.446763 33.369883 
L 69.338438 31.806835 
L 71.356224 30.42087 
L 73.500121 29.211234 
L 75.896242 28.120147 
L 78.544587 27.169803 
L 81.445154 26.368861 
L 84.850168 25.670326 
L 88.759629 25.102141 
L 93.551871 24.63938 
L 96.830773 24.424235 
L 96.830773 24.424235 
" clip-path="url(#pc91a1cab11)" style="fill: none; stroke: #365d8d; stroke-width: 2; stroke-linecap: square"/>
   </g>
   <g id="line2d_11">
    <path d="M 43.99 79.598747 
L 44.90724 66.213817 
L 45.82448 56.041536 
L 46.74172 48.310804 
L 47.65896 42.435602 
L 48.5762 37.970566 
L 49.49344 34.577227 
L 50.41068 31.998356 
L 51.3678 29.964853 
L 52.32492 28.437764 
L 53.32192 27.249951 
L 54.39868 26.308725 
L 55.59508 25.563668 
L 56.951 24.986417 
L 58.58608 24.540068 
L 60.69972 24.208572 
L 60.69972 24.208572 
" clip-path="url(#pc91a1cab11)" style="fill: none; stroke: #21918c; stroke-width: 2; stroke-linecap: square"/>
   </g>
   <g id="line2d_12">
    <path d="M 43.99 49.732499 
L 44.519669 39.523036 
L 45.049338 33.338069 
L 45.579007 29.591171 
L 46.108675 27.321273 
L 46.650955 25.921083 
L 47.205847 25.068071 
L 47.811182 24.52944 
L 48.54263 24.181488 
L 49.274077 24.007335 
L 49.274077 24.007335 
" clip-path="url(#pc91a1cab11)" style="fill: none; stroke: #48c16e; stroke-width: 2; stroke-linecap: square"/>
   </g>
   <g id="line2d_13">
    <path d="M 43.99 33.448075 
L 44.305052 27.578603 
L 44.620104 25.292054 
L 44.939144 24.394548 
L 45.282112 24.034116 
L 45.660972 23.897611 
L 45.660972 23.897611 
" clip-path="url(#pc91a1cab11)" style="fill: none; stroke: #cae11f; stroke-width: 2; stroke-linecap: square"/>
   </g>
   <g id="line2d_14">
    <path d="M 43.99 23.832824 
L 211.087196 23.832824 
" clip-path="url(#pc91a1cab11)" style="fill: none; stroke: #272727; stroke-width: 0.75; stroke-linecap: square"/>
   </g>
   <g id="patch_3">
    <path d="M 43.99 137.349188 
L 43.99 19.053187 
" style="fill: none; stroke: #272727; stroke-width: 0.9; stroke-linejoin: miter; stroke-linecap: square"/>
   </g>
   <g id="patch_4">
    <path d="M 43.99 137.349187 
L 211.087196 137.349187 
" style="fill: none; stroke: #272727; stroke-width: 0.9; stroke-linejoin: miter; stroke-linecap: square"/>
   </g>
   <g id="text_11">
    <text style="font: 9.4px 'Helvetica', 'Nimbus Sans', 'Arial', 'DejaVu Sans', sans-serif; text-anchor: start" x="43.99" y="14.053187" transform="rotate(-0 43.99 14.053187)">Full decay</text>
   </g>
   <g id="legend_1">
    <g id="line2d_15">
     <path d="M 167.267196 86.556531 
L 172.517196 86.556531 
L 177.767196 86.556531 
" style="fill: none; stroke: #481d6f; stroke-width: 2; stroke-linecap: square"/>
    </g>
    <g id="text_12">
     <!-- $10^{-4}$ M -->
     <g transform="translate(183.367196 89.006531)">
      <text>
       <tspan style="font: 7px 'Nimbus Sans'" x="0 3.891998 13.602109 15.548108" y="-0.049125000000000085">10 M</tspan>
       <tspan style="font: 4.9px 'Nimbus Sans'" x="7.844175 10.705773" y="-2.4562500000000003">−4</tspan>
      </text>
     </g>
    </g>
    <g id="line2d_16">
     <path d="M 167.267196 96.68575 
L 172.517196 96.68575 
L 177.767196 96.68575 
" style="fill: none; stroke: #365d8d; stroke-width: 2; stroke-linecap: square"/>
    </g>
    <g id="text_13">
     <!-- $10^{-3}$ M -->
     <g transform="translate(183.367196 99.13575)">
      <text>
       <tspan style="font: 7px 'Nimbus Sans'" x="0 3.891998 13.602109 15.548108" y="-0.049125000000000085">10 M</tspan>
       <tspan style="font: 4.9px 'Nimbus Sans'" x="7.844175 10.705773" y="-2.4562500000000003">−3</tspan>
      </text>
     </g>
    </g>
    <g id="line2d_17">
     <path d="M 167.267196 106.814969 
L 172.517196 106.814969 
L 177.767196 106.814969 
" style="fill: none; stroke: #21918c; stroke-width: 2; stroke-linecap: square"/>
    </g>
    <g id="text_14">
     <!-- $10^{-2}$ M -->
     <g transform="translate(183.367196 109.264969)">
      <text>
       <tspan style="font: 7px 'Nimbus Sans'" x="0 3.891998 13.602109 15.548108" y="-0.049125000000000085">10 M</tspan>
       <tspan style="font: 4.9px 'Nimbus Sans'" x="7.844175 10.705773" y="-2.4562500000000003">−2</tspan>
      </text>
     </g>
    </g>
    <g id="line2d_18">
     <path d="M 167.267196 116.944187 
L 172.517196 116.944187 
L 177.767196 116.944187 
" style="fill: none; stroke: #48c16e; stroke-width: 2; stroke-linecap: square"/>
    </g>
    <g id="text_15">
     <!-- $10^{-1}$ M -->
     <g transform="translate(183.367196 119.394187)">
      <text>
       <tspan style="font: 7px 'Nimbus Sans'" x="0 3.891998 13.602109 15.548108" y="-0.049125000000000085">10 M</tspan>
       <tspan style="font: 4.9px 'Nimbus Sans'" x="7.844175 10.705773" y="-2.4562500000000003">−1</tspan>
      </text>
     </g>
    </g>
    <g id="line2d_19">
     <path d="M 167.267196 127.073406 
L 172.517196 127.073406 
L 177.767196 127.073406 
" style="fill: none; stroke: #cae11f; stroke-width: 2; stroke-linecap: square"/>
    </g>
    <g id="text_16">
     <text style="font: 7px 'Helvetica', 'Nimbus Sans', 'Arial', 'DejaVu Sans', sans-serif; text-anchor: start" x="183.367196" y="129.523406" transform="rotate(-0 183.367196 129.523406)">1 M</text>
    </g>
   </g>
  </g>
  <g id="axes_2">
   <g id="patch_5">
    <path d="M 234.480804 137.349187 
L 401.578 137.349187 
L 401.578 19.053187 
L 234.480804 19.053187 
z
" style="fill: #ffffff"/>
   </g>
   <g id="matplotlib.axis_3">
    <g id="xtick_5">
     <g id="line2d_20">
      <g>
       <use xlink:href="#m316a27e807" x="234.480804" y="137.349187" style="fill: #111827; stroke: #111827; stroke-width: 0.85"/>
      </g>
     </g>
     <g id="text_17">
      <text style="fill: #111827; font: 8px 'Helvetica', 'Nimbus Sans', 'Arial', 'DejaVu Sans', sans-serif; text-anchor: middle" x="234.480804" y="149.881687" transform="rotate(-0 234.480804 149.881687)">0.0</text>
     </g>
    </g>
    <g id="xtick_6">
     <g id="line2d_21">
      <g>
       <use xlink:href="#m316a27e807" x="276.255103" y="137.349187" style="fill: #111827; stroke: #111827; stroke-width: 0.85"/>
      </g>
     </g>
     <g id="text_18">
      <text style="fill: #111827; font: 8px 'Helvetica', 'Nimbus Sans', 'Arial', 'DejaVu Sans', sans-serif; text-anchor: middle" x="276.255103" y="149.881687" transform="rotate(-0 276.255103 149.881687)">0.5</text>
     </g>
    </g>
    <g id="xtick_7">
     <g id="line2d_22">
      <g>
       <use xlink:href="#m316a27e807" x="318.029402" y="137.349187" style="fill: #111827; stroke: #111827; stroke-width: 0.85"/>
      </g>
     </g>
     <g id="text_19">
      <text style="fill: #111827; font: 8px 'Helvetica', 'Nimbus Sans', 'Arial', 'DejaVu Sans', sans-serif; text-anchor: middle" x="318.029402" y="149.881687" transform="rotate(-0 318.029402 149.881687)">1.0</text>
     </g>
    </g>
    <g id="xtick_8">
     <g id="line2d_23">
      <g>
       <use xlink:href="#m316a27e807" x="359.803701" y="137.349187" style="fill: #111827; stroke: #111827; stroke-width: 0.85"/>
      </g>
     </g>
     <g id="text_20">
      <text style="fill: #111827; font: 8px 'Helvetica', 'Nimbus Sans', 'Arial', 'DejaVu Sans', sans-serif; text-anchor: middle" x="359.803701" y="149.881687" transform="rotate(-0 359.803701 149.881687)">1.5</text>
     </g>
    </g>
    <g id="xtick_9">
     <g id="line2d_24">
      <g>
       <use xlink:href="#m316a27e807" x="401.578" y="137.349187" style="fill: #111827; stroke: #111827; stroke-width: 0.85"/>
      </g>
     </g>
     <g id="text_21">
      <text style="fill: #111827; font: 8px 'Helvetica', 'Nimbus Sans', 'Arial', 'DejaVu Sans', sans-serif; text-anchor: middle" x="401.578" y="149.881687" transform="rotate(-0 401.578 149.881687)">2.0</text>
     </g>
    </g>
    <g id="text_22">
     <!-- Distance from RP, $x$ (nm) -->
     <g style="fill: #111827" transform="translate(270.301902 161.915437)">
      <text>
       <tspan style="font: 8.5px 'Nimbus Sans'" x="0 6.136993 8.023987 12.273987 14.636978 19.362976 24.088974 28.338974 33.064972 35.427963 37.790955 40.621445 45.347443 52.427948 54.790939 60.927933 66.597427 68.960419 75.57341 77.936401 80.766891 85.492889 92.573395" y="-0.78125">Distance from RP,  (nm)</tspan>
       <tspan style="font: italic 8.5px 'Nimbus Sans'" x="71.32341" y="-0.78125">x</tspan>
      </text>
     </g>
    </g>
   </g>
   <g id="matplotlib.axis_4">
    <g id="ytick_5">
     <g id="line2d_25">
      <g>
       <use xlink:href="#m8953af3e18" x="234.480804" y="113.451006" style="fill: #111827; stroke: #111827; stroke-width: 0.85"/>
      </g>
     </g>
    </g>
    <g id="ytick_6">
     <g id="line2d_26">
      <g>
       <use xlink:href="#m8953af3e18" x="234.480804" y="83.578278" style="fill: #111827; stroke: #111827; stroke-width: 0.85"/>
      </g>
     </g>
    </g>
    <g id="ytick_7">
     <g id="line2d_27">
      <g>
       <use xlink:href="#m8953af3e18" x="234.480804" y="53.705551" style="fill: #111827; stroke: #111827; stroke-width: 0.85"/>
      </g>
     </g>
    </g>
    <g id="ytick_8">
     <g id="line2d_28">
      <g>
       <use xlink:href="#m8953af3e18" x="234.480804" y="23.832824" style="fill: #111827; stroke: #111827; stroke-width: 0.85"/>
      </g>
     </g>
    </g>
   </g>
   <g id="line2d_29">
    <path d="M 234.480804 131.069549 
L 355.76457 126.071095 
L 459.739944 121.973581 
L 459.739944 121.973581 
" clip-path="url(#p9699a0e584)" style="fill: none; stroke: #481d6f; stroke-width: 2; stroke-linecap: square"/>
   </g>
   <g id="line2d_30">
    <path d="M 234.480804 111.605972 
L 272.834098 107.514742 
L 311.187393 103.61421 
L 359.129011 98.993213 
L 407.070629 94.639868 
L 455.012248 90.538671 
L 459.739944 90.148515 
L 459.739944 90.148515 
" clip-path="url(#p9699a0e584)" style="fill: none; stroke: #365d8d; stroke-width: 2; stroke-linecap: square"/>
   </g>
   <g id="line2d_31">
    <path d="M 234.480804 79.598747 
L 249.641275 76.368743 
L 267.83384 72.738725 
L 286.026405 69.359526 
L 304.21897 66.213817 
L 322.411535 63.285463 
L 340.6041 60.559446 
L 361.828759 57.616228 
L 383.053418 54.908875 
L 404.278077 52.418485 
L 428.53483 49.815755 
L 452.791584 47.450004 
L 459.739944 46.813254 
L 459.739944 46.813254 
" clip-path="url(#p9699a0e584)" style="fill: none; stroke: #21918c; stroke-width: 2; stroke-linecap: square"/>
   </g>
   <g id="line2d_32">
    <path d="M 234.480804 49.732499 
L 242.151463 47.374329 
L 249.822122 45.230871 
L 258.451613 43.051857 
L 267.081104 41.094737 
L 276.669428 39.153002 
L 286.257751 37.429686 
L 296.804907 35.757073 
L 308.310896 34.166169 
L 320.775717 32.681296 
L 334.19937 31.319915 
L 348.581855 30.09284 
L 363.923173 29.004785 
L 381.182156 28.005071 
L 400.358803 27.119219 
L 422.411947 26.330419 
L 447.341589 25.664196 
L 459.739944 25.402338 
L 459.739944 25.402338 
" clip-path="url(#p9699a0e584)" style="fill: none; stroke: #48c16e; stroke-width: 2; stroke-linecap: square"/>
   </g>
   <g id="line2d_33">
    <path d="M 234.480804 33.448075 
L 238.725736 31.968721 
L 243.273877 30.635312 
L 248.125227 29.45297 
L 253.582997 28.366624 
L 259.343976 27.446878 
L 266.014583 26.612405 
L 273.594818 25.895432 
L 282.387892 25.292054 
L 293.000221 24.793851 
L 306.341436 24.401291 
L 324.230791 24.113973 
L 350.91322 23.931197 
L 361.525549 23.897611 
L 361.525549 23.897611 
" clip-path="url(#p9699a0e584)" style="fill: none; stroke: #cae11f; stroke-width: 2; stroke-linecap: square"/>
   </g>
   <g id="line2d_34">
    <path d="M 234.480804 23.832824 
L 401.578 23.832824 
" clip-path="url(#p9699a0e584)" style="fill: none; stroke: #272727; stroke-width: 0.75; stroke-linecap: square"/>
   </g>
   <g id="patch_6">
    <path d="M 234.480804 137.349188 
L 234.480804 19.053187 
" style="fill: none; stroke: #272727; stroke-width: 0.9; stroke-linejoin: miter; stroke-linecap: square"/>
   </g>
   <g id="patch_7">
    <path d="M 234.480804 137.349187 
L 401.578 137.349187 
" style="fill: none; stroke: #272727; stroke-width: 0.9; stroke-linejoin: miter; stroke-linecap: square"/>
   </g>
   <g id="text_23">
    <text style="font: 9.4px 'Helvetica', 'Nimbus Sans', 'Arial', 'DejaVu Sans', sans-serif; text-anchor: start" x="234.480804" y="14.053187" transform="rotate(-0 234.480804 14.053187)">Near reaction plane</text>
   </g>
   <g id="legend_2">
    <g id="line2d_35">
     <path d="M 411.219944 57.281578 
L 416.469944 57.281578 
L 421.719944 57.281578 
" style="fill: none; stroke: #481d6f; stroke-width: 2; stroke-linecap: square"/>
    </g>
    <g id="text_24">
     <!-- $10^{-4}$ M -->
     <g transform="translate(427.319944 59.731578)">
      <text>
       <tspan style="font: 7px 'Nimbus Sans'" x="0 3.891998 13.602109 15.548108" y="-0.049125000000000085">10 M</tspan>
       <tspan style="font: 4.9px 'Nimbus Sans'" x="7.844175 10.705773" y="-2.4562500000000003">−4</tspan>
      </text>
     </g>
    </g>
    <g id="line2d_36">
     <path d="M 411.219944 67.410797 
L 416.469944 67.410797 
L 421.719944 67.410797 
" style="fill: none; stroke: #365d8d; stroke-width: 2; stroke-linecap: square"/>
    </g>
    <g id="text_25">
     <!-- $10^{-3}$ M -->
     <g transform="translate(427.319944 69.860797)">
      <text>
       <tspan style="font: 7px 'Nimbus Sans'" x="0 3.891998 13.602109 15.548108" y="-0.049125000000000085">10 M</tspan>
       <tspan style="font: 4.9px 'Nimbus Sans'" x="7.844175 10.705773" y="-2.4562500000000003">−3</tspan>
      </text>
     </g>
    </g>
    <g id="line2d_37">
     <path d="M 411.219944 77.540016 
L 416.469944 77.540016 
L 421.719944 77.540016 
" style="fill: none; stroke: #21918c; stroke-width: 2; stroke-linecap: square"/>
    </g>
    <g id="text_26">
     <!-- $10^{-2}$ M -->
     <g transform="translate(427.319944 79.990016)">
      <text>
       <tspan style="font: 7px 'Nimbus Sans'" x="0 3.891998 13.602109 15.548108" y="-0.049125000000000085">10 M</tspan>
       <tspan style="font: 4.9px 'Nimbus Sans'" x="7.844175 10.705773" y="-2.4562500000000003">−2</tspan>
      </text>
     </g>
    </g>
    <g id="line2d_38">
     <path d="M 411.219944 87.669234 
L 416.469944 87.669234 
L 421.719944 87.669234 
" style="fill: none; stroke: #48c16e; stroke-width: 2; stroke-linecap: square"/>
    </g>
    <g id="text_27">
     <!-- $10^{-1}$ M -->
     <g transform="translate(427.319944 90.119234)">
      <text>
       <tspan style="font: 7px 'Nimbus Sans'" x="0 3.891998 13.602109 15.548108" y="-0.049125000000000085">10 M</tspan>
       <tspan style="font: 4.9px 'Nimbus Sans'" x="7.844175 10.705773" y="-2.4562500000000003">−1</tspan>
      </text>
     </g>
    </g>
    <g id="line2d_39">
     <path d="M 411.219944 97.798453 
L 416.469944 97.798453 
L 421.719944 97.798453 
" style="fill: none; stroke: #cae11f; stroke-width: 2; stroke-linecap: square"/>
    </g>
    <g id="text_28">
     <text style="font: 7px 'Helvetica', 'Nimbus Sans', 'Arial', 'DejaVu Sans', sans-serif; text-anchor: start" x="427.319944" y="100.248453" transform="rotate(-0 427.319944 100.248453)">1 M</text>
    </g>
   </g>
  </g>
 </g>
 <defs>
  <clipPath id="pc91a1cab11">
   <rect x="43.99" y="19.053187" width="167.097196" height="118.296"/>
  </clipPath>
  <clipPath id="p9699a0e584">
   <rect x="234.480804" y="19.053187" width="167.097196" height="118.296"/>
  </clipPath>
 </defs>
</svg>
