<?xml version="1.0" encoding="utf-8" standalone="no"?>
<!DOCTYPE svg PUBLIC "-//W3C//DTD SVG 1.1//EN"
  "http://www.w3.org/Graphics/SVG/1.1/DTD/svg11.dtd">
<svg xmlns:xlink="http://www.w3.org/1999/xlink" width="255.6pt" height="198pt" viewBox="0 0 255.6 198" xmlns="http://www.w3.org/2000/svg" version="1.1">
 <metadata>
  <rdf:RDF xmlns:dc="http://purl.org/dc/elements/1.1/" xmlns:cc="http://creativecommons.org/ns#" xmlns:rdf="http://www.w3.org/1999/02/22-rdf-syntax-ns#">
   <cc:Work>
    <dc:type rdf:resource="http://purl.org/dc/dcmitype/StillImage"/>
    <dc:date>2026-06-23T14:42:40.573665</dc:date>
    <dc:format>image/svg+xml</dc:format>
    <dc:creator>
     <cc:Agent>
      <dc:title>Matplotlib v3.6.3, https://matplotlib.org/</dc:title>
     </cc:Agent>
    </dc:creator>
   </cc:Work>
  </rdf:RDF>
 </metadata>
 <defs>
  <style type="text/css">*{stroke-linejoin: round; stroke-linecap: butt}</style>
 </defs>
 <g id="figure_1">
  <g id="patch_1">
   <path d="M 0 198 
L 255.6 198 
L 255.6 0 
L 0 0 
L 0 198 
z
" style="fill: none; opacity: 0"/>
  </g>
  <g id="axes_1">
   <g id="patch_2">
    <path d="M 46.008 158.4 
L 245.376 158.4 
L 245.376 27.72 
L 46.008 27.72 
L 46.008 158.4 
z
" style="fill: none"/>
   </g>
   <g id="matplotlib.axis_1">
    <g id="xtick_1">
     <g id="line2d_1">
      <defs>
       <path id="m0e594e5425" d="M 0 0 
L 0 3.4 
" style="stroke: #111827; stroke-width: 0.85"/>
      </defs>
      <g>
       <use xlink:href="#m0e594e5425" x="55.070182" y="158.4" style="fill: #111827; stroke: #111827; stroke-width: 0.85"/>
      </g>
     </g>
     <g id="text_1">
      <text style="fill: #111827; font: 8.2px 'Helvetica', 'Nimbus Sans', 'Arial', 'DejaVu Sans', sans-serif; text-anchor: middle" x="55.070182" y="170.278312" transform="rotate(-0 55.070182 170.278312)">0</text>
     </g>
    </g>
    <g id="xtick_2">
     <g id="line2d_2">
      <g>
       <use xlink:href="#m0e594e5425" x="85.277455" y="158.4" style="fill: #111827; stroke: #111827; stroke-width: 0.85"/>
      </g>
     </g>
     <g id="text_2">
      <text style="fill: #111827; font: 8.2px 'Helvetica', 'Nimbus Sans', 'Arial', 'DejaVu Sans', sans-serif; text-anchor: middle" x="85.277455" y="170.278312" transform="rotate(-0 85.277455 170.278312)">10</text>
     </g>
    </g>
    <g id="xtick_3">
     <g id="line2d_3">
      <g>
       <use xlink:href="#m0e594e5425" x="115.484727" y="158.4" style="fill: #111827; stroke: #111827; stroke-width: 0.85"/>
      </g>
     </g>
     <g id="text_3">
      <text style="fill: #111827; font: 8.2px 'Helvetica', 'Nimbus Sans', 'Arial', 'DejaVu Sans', sans-serif; text-anchor: middle" x="115.484727" y="170.278312" transform="rotate(-0 115.484727 170.278312)">20</text>
     </g>
    </g>
    <g id="xtick_4">
     <g id="line2d_4">
      <g>
       <use xlink:href="#m0e594e5425" x="145.692" y="158.4" style="fill: #111827; stroke: #111827; stroke-width: 0.85"/>
      </g>
     </g>
     <g id="text_4">
      <text style="fill: #111827; font: 8.2px 'Helvetica', 'Nimbus Sans', 'Arial', 'DejaVu Sans', sans-serif; text-anchor: middle" x="145.692" y="170.278312" transform="rotate(-0 145.692 170.278312)">30</text>
     </g>
    </g>
    <g id="xtick_5">
     <g id="line2d_5">
      <g>
       <use xlink:href="#m0e594e5425" x="175.899273" y="158.4" style="fill: #111827; stroke: #111827; stroke-width: 0.85"/>
      </g>
     </g>
     <g id="text_5">
      <text style="fill: #111827; font: 8.2px 'Helvetica', 'Nimbus Sans', 'Arial', 'DejaVu Sans', sans-serif; text-anchor: middle" x="175.899273" y="170.278312" transform="rotate(-0 175.899273 170.278312)">40</text>
     </g>
    </g>
    <g id="xtick_6">
     <g id="line2d_6">
      <g>
       <use xlink:href="#m0e594e5425" x="206.106545" y="158.4" style="fill: #111827; stroke: #111827; stroke-width: 0.85"/>
      </g>
     </g>
     <g id="text_6">
      <text style="fill: #111827; font: 8.2px 'Helvetica', 'Nimbus Sans', 'Arial', 'DejaVu Sans', sans-serif; text-anchor: middle" x="206.106545" y="170.278312" transform="rotate(-0 206.106545 170.278312)">50</text>
     </g>
    </g>
    <g id="xtick_7">
     <g id="line2d_7">
      <g>
       <use xlink:href="#m0e594e5425" x="236.313818" y="158.4" style="fill: #111827; stroke: #111827; stroke-width: 0.85"/>
      </g>
     </g>
     <g id="text_7">
      <text style="fill: #111827; font: 8.2px 'Helvetica', 'Nimbus Sans', 'Arial', 'DejaVu Sans', sans-serif; text-anchor: middle" x="236.313818" y="170.278312" transform="rotate(-0 236.313818 170.278312)">60</text>
     </g>
    </g>
    <g id="text_8">
     <text style="fill: #111827; font: 8.5px 'Helvetica', 'Nimbus Sans', 'Arial', 'DejaVu Sans', sans-serif; text-anchor: middle" x="145.692" y="182.262687" transform="rotate(-0 145.692 182.262687)">x [nm]</text>
    </g>
   </g>
   <g id="matplotlib.axis_2">
    <g id="ytick_1">
     <g id="line2d_8">
      <defs>
       <path id="mbb6a922e12" d="M 0 0 
L -3.4 0 
" style="stroke: #111827; stroke-width: 0.85"/>
      </defs>
      <g>
       <use xlink:href="#mbb6a922e12" x="46.008" y="145.29094" style="fill: #111827; stroke: #111827; stroke-width: 0.85"/>
      </g>
     </g>
     <g id="text_9">
      <!-- $\mathdefault{10^{-2}}$ -->
      <g style="fill: #111827" transform="translate(24.118 148.280096)">
       <text>
        <tspan style="font: 8.2px 'Nimbus Sans'" x="0 4.552246" y="-0.03491250000000079">10</tspan>
        <tspan style="font: 5.74px 'Nimbus Sans'" x="9.174987 12.522032" y="-2.8546875">−2</tspan>
       </text>
      </g>
     </g>
    </g>
    <g id="ytick_2">
     <g id="line2d_9">
      <g>
       <use xlink:href="#mbb6a922e12" x="46.008" y="123.556032" style="fill: #111827; stroke: #111827; stroke-width: 0.85"/>
      </g>
     </g>
     <g id="text_10">
      <!-- $\mathdefault{10^{-1}}$ -->
      <g style="fill: #111827" transform="translate(24.118 126.545188)">
       <text>
        <tspan style="font: 8.2px 'Nimbus Sans'" x="0 4.552246" y="-0.03491250000000079">10</tspan>
        <tspan style="font: 5.74px 'Nimbus Sans'" x="9.174987 12.522032" y="-2.8546875">−1</tspan>
       </text>
      </g>
     </g>
    </g>
    <g id="ytick_3">
     <g id="line2d_10">
      <g>
       <use xlink:href="#mbb6a922e12" x="46.008" y="101.821124" style="fill: #111827; stroke: #111827; stroke-width: 0.85"/>
      </g>
     </g>
     <g id="text_11">
      <!-- $\mathdefault{10^{0}}$ -->
      <g style="fill: #111827" transform="translate(27.48 104.81028)">
       <text>
        <tspan style="font: 8.2px 'Nimbus Sans'" x="0 4.552246" y="-0.03491250000000079">10</tspan>
        <tspan style="font: 5.74px 'Nimbus Sans'" x="9.174987" y="-2.8546875">0</tspan>
       </text>
      </g>
     </g>
    </g>
    <g id="ytick_4">
     <g id="line2d_11">
      <g>
       <use xlink:href="#mbb6a922e12" x="46.008" y="80.086216" style="fill: #111827; stroke: #111827; stroke-width: 0.85"/>
      </g>
     </g>
     <g id="text_12">
      <!-- $\mathdefault{10^{1}}$ -->
      <g style="fill: #111827" transform="translate(27.48 83.075372)">
       <text>
        <tspan style="font: 8.2px 'Nimbus Sans'" x="0 4.552246" y="-0.03491250000000079">10</tspan>
        <tspan style="font: 5.74px 'Nimbus Sans'" x="9.174987" y="-2.8546875">1</tspan>
       </text>
      </g>
     </g>
    </g>
    <g id="ytick_5">
     <g id="line2d_12">
      <g>
       <use xlink:href="#mbb6a922e12" x="46.008" y="58.351308" style="fill: #111827; stroke: #111827; stroke-width: 0.85"/>
      </g>
     </g>
     <g id="text_13">
      <!-- $\mathdefault{10^{2}}$ -->
      <g style="fill: #111827" transform="translate(27.48 61.340464)">
       <text>
        <tspan style="font: 8.2px 'Nimbus Sans'" x="0 4.552246" y="-0.03491250000000079">10</tspan>
        <tspan style="font: 5.74px 'Nimbus Sans'" x="9.174987" y="-2.8546875">2</tspan>
       </text>
      </g>
     </g>
    </g>
    <g id="ytick_6">
     <g id="line2d_13">
      <g>
       <use xlink:href="#mbb6a922e12" x="46.008" y="36.6164" style="fill: #111827; stroke: #111827; stroke-width: 0.85"/>
      </g>
     </g>
     <g id="text_14">
      <!-- $\mathdefault{10^{3}}$ -->
      <g style="fill: #111827" transform="translate(27.48 39.605556)">
       <text>
        <tspan style="font: 8.2px 'Nimbus Sans'" x="0 4.552246" y="-0.03491250000000079">10</tspan>
        <tspan style="font: 5.74px 'Nimbus Sans'" x="9.174987" y="-2.8546875">3</tspan>
       </text>
      </g>
     </g>
    </g>
    <g id="ytick_7">
     <g id="line2d_14">
      <defs>
       <path id="mf8c3cde5dd" d="M 0 0 
L -2 0 
" style="stroke: #111827; stroke-width: 0.6"/>
      </defs>
      <g>
       <use xlink:href="#mf8c3cde5dd" x="46.008" y="156.655661" style="fill: #111827; stroke: #111827; stroke-width: 0.6"/>
      </g>
     </g>
    </g>
    <g id="ytick_8">
     <g id="line2d_15">
      <g>
       <use xlink:href="#mf8c3cde5dd" x="46.008" y="153.940129" style="fill: #111827; stroke: #111827; stroke-width: 0.6"/>
      </g>
     </g>
    </g>
    <g id="ytick_9">
     <g id="line2d_16">
      <g>
       <use xlink:href="#mf8c3cde5dd" x="46.008" y="151.833799" style="fill: #111827; stroke: #111827; stroke-width: 0.6"/>
      </g>
     </g>
    </g>
    <g id="ytick_10">
     <g id="line2d_17">
      <g>
       <use xlink:href="#mf8c3cde5dd" x="46.008" y="150.112802" style="fill: #111827; stroke: #111827; stroke-width: 0.6"/>
      </g>
     </g>
    </g>
    <g id="ytick_11">
     <g id="line2d_18">
      <g>
       <use xlink:href="#mf8c3cde5dd" x="46.008" y="148.65772" style="fill: #111827; stroke: #111827; stroke-width: 0.6"/>
      </g>
     </g>
    </g>
    <g id="ytick_12">
     <g id="line2d_19">
      <g>
       <use xlink:href="#mf8c3cde5dd" x="46.008" y="147.39727" style="fill: #111827; stroke: #111827; stroke-width: 0.6"/>
      </g>
     </g>
    </g>
    <g id="ytick_13">
     <g id="line2d_20">
      <g>
       <use xlink:href="#mf8c3cde5dd" x="46.008" y="146.285475" style="fill: #111827; stroke: #111827; stroke-width: 0.6"/>
      </g>
     </g>
    </g>
    <g id="ytick_14">
     <g id="line2d_21">
      <g>
       <use xlink:href="#mf8c3cde5dd" x="46.008" y="138.748081" style="fill: #111827; stroke: #111827; stroke-width: 0.6"/>
      </g>
     </g>
    </g>
    <g id="ytick_15">
     <g id="line2d_22">
      <g>
       <use xlink:href="#mf8c3cde5dd" x="46.008" y="134.920753" style="fill: #111827; stroke: #111827; stroke-width: 0.6"/>
      </g>
     </g>
    </g>
    <g id="ytick_16">
     <g id="line2d_23">
      <g>
       <use xlink:href="#mf8c3cde5dd" x="46.008" y="132.205221" style="fill: #111827; stroke: #111827; stroke-width: 0.6"/>
      </g>
     </g>
    </g>
    <g id="ytick_17">
     <g id="line2d_24">
      <g>
       <use xlink:href="#mf8c3cde5dd" x="46.008" y="130.098891" style="fill: #111827; stroke: #111827; stroke-width: 0.6"/>
      </g>
     </g>
    </g>
    <g id="ytick_18">
     <g id="line2d_25">
      <g>
       <use xlink:href="#mf8c3cde5dd" x="46.008" y="128.377894" style="fill: #111827; stroke: #111827; stroke-width: 0.6"/>
      </g>
     </g>
    </g>
    <g id="ytick_19">
     <g id="line2d_26">
      <g>
       <use xlink:href="#mf8c3cde5dd" x="46.008" y="126.922812" style="fill: #111827; stroke: #111827; stroke-width: 0.6"/>
      </g>
     </g>
    </g>
    <g id="ytick_20">
     <g id="line2d_27">
      <g>
       <use xlink:href="#mf8c3cde5dd" x="46.008" y="125.662362" style="fill: #111827; stroke: #111827; stroke-width: 0.6"/>
      </g>
     </g>
    </g>
    <g id="ytick_21">
     <g id="line2d_28">
      <g>
       <use xlink:href="#mf8c3cde5dd" x="46.008" y="124.550567" style="fill: #111827; stroke: #111827; stroke-width: 0.6"/>
      </g>
     </g>
    </g>
    <g id="ytick_22">
     <g id="line2d_29">
      <g>
       <use xlink:href="#mf8c3cde5dd" x="46.008" y="117.013173" style="fill: #111827; stroke: #111827; stroke-width: 0.6"/>
      </g>
     </g>
    </g>
    <g id="ytick_23">
     <g id="line2d_30">
      <g>
       <use xlink:href="#mf8c3cde5dd" x="46.008" y="113.185845" style="fill: #111827; stroke: #111827; stroke-width: 0.6"/>
      </g>
     </g>
    </g>
    <g id="ytick_24">
     <g id="line2d_31">
      <g>
       <use xlink:href="#mf8c3cde5dd" x="46.008" y="110.470313" style="fill: #111827; stroke: #111827; stroke-width: 0.6"/>
      </g>
     </g>
    </g>
    <g id="ytick_25">
     <g id="line2d_32">
      <g>
       <use xlink:href="#mf8c3cde5dd" x="46.008" y="108.363983" style="fill: #111827; stroke: #111827; stroke-width: 0.6"/>
      </g>
     </g>
    </g>
    <g id="ytick_26">
     <g id="line2d_33">
      <g>
       <use xlink:href="#mf8c3cde5dd" x="46.008" y="106.642986" style="fill: #111827; stroke: #111827; stroke-width: 0.6"/>
      </g>
     </g>
    </g>
    <g id="ytick_27">
     <g id="line2d_34">
      <g>
       <use xlink:href="#mf8c3cde5dd" x="46.008" y="105.187904" style="fill: #111827; stroke: #111827; stroke-width: 0.6"/>
      </g>
     </g>
    </g>
    <g id="ytick_28">
     <g id="line2d_35">
      <g>
       <use xlink:href="#mf8c3cde5dd" x="46.008" y="103.927454" style="fill: #111827; stroke: #111827; stroke-width: 0.6"/>
      </g>
     </g>
    </g>
    <g id="ytick_29">
     <g id="line2d_36">
      <g>
       <use xlink:href="#mf8c3cde5dd" x="46.008" y="102.815659" style="fill: #111827; stroke: #111827; stroke-width: 0.6"/>
      </g>
     </g>
    </g>
    <g id="ytick_30">
     <g id="line2d_37">
      <g>
       <use xlink:href="#mf8c3cde5dd" x="46.008" y="95.278265" style="fill: #111827; stroke: #111827; stroke-width: 0.6"/>
      </g>
     </g>
    </g>
    <g id="ytick_31">
     <g id="line2d_38">
      <g>
       <use xlink:href="#mf8c3cde5dd" x="46.008" y="91.450937" style="fill: #111827; stroke: #111827; stroke-width: 0.6"/>
      </g>
     </g>
    </g>
    <g id="ytick_32">
     <g id="line2d_39">
      <g>
       <use xlink:href="#mf8c3cde5dd" x="46.008" y="88.735405" style="fill: #111827; stroke: #111827; stroke-width: 0.6"/>
      </g>
     </g>
    </g>
    <g id="ytick_33">
     <g id="line2d_40">
      <g>
       <use xlink:href="#mf8c3cde5dd" x="46.008" y="86.629075" style="fill: #111827; stroke: #111827; stroke-width: 0.6"/>
      </g>
     </g>
    </g>
    <g id="ytick_34">
     <g id="line2d_41">
      <g>
       <use xlink:href="#mf8c3cde5dd" x="46.008" y="84.908078" style="fill: #111827; stroke: #111827; stroke-width: 0.6"/>
      </g>
     </g>
    </g>
    <g id="ytick_35">
     <g id="line2d_42">
      <g>
       <use xlink:href="#mf8c3cde5dd" x="46.008" y="83.452996" style="fill: #111827; stroke: #111827; stroke-width: 0.6"/>
      </g>
     </g>
    </g>
    <g id="ytick_36">
     <g id="line2d_43">
      <g>
       <use xlink:href="#mf8c3cde5dd" x="46.008" y="82.192546" style="fill: #111827; stroke: #111827; stroke-width: 0.6"/>
      </g>
     </g>
    </g>
    <g id="ytick_37">
     <g id="line2d_44">
      <g>
       <use xlink:href="#mf8c3cde5dd" x="46.008" y="81.080751" style="fill: #111827; stroke: #111827; stroke-width: 0.6"/>
      </g>
     </g>
    </g>
    <g id="ytick_38">
     <g id="line2d_45">
      <g>
       <use xlink:href="#mf8c3cde5dd" x="46.008" y="73.543357" style="fill: #111827; stroke: #111827; stroke-width: 0.6"/>
      </g>
     </g>
    </g>
    <g id="ytick_39">
     <g id="line2d_46">
      <g>
       <use xlink:href="#mf8c3cde5dd" x="46.008" y="69.716029" style="fill: #111827; stroke: #111827; stroke-width: 0.6"/>
      </g>
     </g>
    </g>
    <g id="ytick_40">
     <g id="line2d_47">
      <g>
       <use xlink:href="#mf8c3cde5dd" x="46.008" y="67.000497" style="fill: #111827; stroke: #111827; stroke-width: 0.6"/>
      </g>
     </g>
    </g>
    <g id="ytick_41">
     <g id="line2d_48">
      <g>
       <use xlink:href="#mf8c3cde5dd" x="46.008" y="64.894167" style="fill: #111827; stroke: #111827; stroke-width: 0.6"/>
      </g>
     </g>
    </g>
    <g id="ytick_42">
     <g id="line2d_49">
      <g>
       <use xlink:href="#mf8c3cde5dd" x="46.008" y="63.17317" style="fill: #111827; stroke: #111827; stroke-width: 0.6"/>
      </g>
     </g>
    </g>
    <g id="ytick_43">
     <g id="line2d_50">
      <g>
       <use xlink:href="#mf8c3cde5dd" x="46.008" y="61.718088" style="fill: #111827; stroke: #111827; stroke-width: 0.6"/>
      </g>
     </g>
    </g>
    <g id="ytick_44">
     <g id="line2d_51">
      <g>
       <use xlink:href="#mf8c3cde5dd" x="46.008" y="60.457638" style="fill: #111827; stroke: #111827; stroke-width: 0.6"/>
      </g>
     </g>
    </g>
    <g id="ytick_45">
     <g id="line2d_52">
      <g>
       <use xlink:href="#mf8c3cde5dd" x="46.008" y="59.345843" style="fill: #111827; stroke: #111827; stroke-width: 0.6"/>
      </g>
     </g>
    </g>
    <g id="ytick_46">
     <g id="line2d_53">
      <g>
       <use xlink:href="#mf8c3cde5dd" x="46.008" y="51.808449" style="fill: #111827; stroke: #111827; stroke-width: 0.6"/>
      </g>
     </g>
    </g>
    <g id="ytick_47">
     <g id="line2d_54">
      <g>
       <use xlink:href="#mf8c3cde5dd" x="46.008" y="47.981121" style="fill: #111827; stroke: #111827; stroke-width: 0.6"/>
      </g>
     </g>
    </g>
    <g id="ytick_48">
     <g id="line2d_55">
      <g>
       <use xlink:href="#mf8c3cde5dd" x="46.008" y="45.265589" style="fill: #111827; stroke: #111827; stroke-width: 0.6"/>
      </g>
     </g>
    </g>
    <g id="ytick_49">
     <g id="line2d_56">
      <g>
       <use xlink:href="#mf8c3cde5dd" x="46.008" y="43.159259" style="fill: #111827; stroke: #111827; stroke-width: 0.6"/>
      </g>
     </g>
    </g>
    <g id="ytick_50">
     <g id="line2d_57">
      <g>
       <use xlink:href="#mf8c3cde5dd" x="46.008" y="41.438262" style="fill: #111827; stroke: #111827; stroke-width: 0.6"/>
      </g>
     </g>
    </g>
    <g id="ytick_51">
     <g id="line2d_58">
      <g>
       <use xlink:href="#mf8c3cde5dd" x="46.008" y="39.98318" style="fill: #111827; stroke: #111827; stroke-width: 0.6"/>
      </g>
     </g>
    </g>
    <g id="ytick_52">
     <g id="line2d_59">
      <g>
       <use xlink:href="#mf8c3cde5dd" x="46.008" y="38.72273" style="fill: #111827; stroke: #111827; stroke-width: 0.6"/>
      </g>
     </g>
    </g>
    <g id="ytick_53">
     <g id="line2d_60">
      <g>
       <use xlink:href="#mf8c3cde5dd" x="46.008" y="37.610935" style="fill: #111827; stroke: #111827; stroke-width: 0.6"/>
      </g>
     </g>
    </g>
    <g id="ytick_54">
     <g id="line2d_61">
      <g>
       <use xlink:href="#mf8c3cde5dd" x="46.008" y="30.073541" style="fill: #111827; stroke: #111827; stroke-width: 0.6"/>
      </g>
     </g>
    </g>
    <g id="text_15">
     <!-- $c_i/c_{\mathrm{bulk}}$ [-] -->
     <g style="fill: #111827" transform="translate(18.248 109.805) rotate(-90)">
      <text>
       <tspan style="font: italic 8.5px 'Nimbus Sans'" x="0 8.142668" y="-0.796875">cc</tspan>
       <tspan style="font: italic 5.95px 'Nimbus Sans'" x="4.25" y="0.4558125000000004">i</tspan>
       <tspan style="font: 8.5px 'Nimbus Sans'" x="5.779677 23.513742 25.876733 28.239724 31.070214" y="-0.796875">/ [-]</tspan>
       <tspan style="font: 5.95px 'Nimbus Sans'" x="12.392668 15.700867 19.009065 20.32996" y="0.4558125000000004">bulk</tspan>
      </text>
     </g>
    </g>
   </g>
   <g id="line2d_62">
    <path d="M 130.588364 158.4 
L 130.588364 27.72 
" clip-path="url(#p746fbfa495)" style="fill: none; stroke-dasharray: 2.7,1.8; stroke-dashoffset: 0; stroke: #767676; stroke-opacity: 0.85; stroke-width: 0.9"/>
   </g>
   <g id="line2d_63">
    <path d="M 160.795636 158.4 
L 160.795636 27.72 
" clip-path="url(#p746fbfa495)" style="fill: none; stroke-dasharray: 2.7,1.8; stroke-dashoffset: 0; stroke: #767676; stroke-opacity: 0.85; stroke-width: 0.9"/>
   </g>
   <g id="line2d_64">
    <path d="M 55.070182 101.821124 
L 236.313818 101.821124 
L 236.313818 101.821124 
" clip-path="url(#p746fbfa495)" style="fill: none; stroke-dasharray: 6.4,3.2; stroke-dashoffset: 0; stroke: #12355b; stroke-width: 1.6"/>
   </g>
   <g id="patch_3">
    <path d="M 46.008 158.4 
L 46.008 27.72 
" style="fill: none; stroke: #272727; stroke-width: 0.9; stroke-linejoin: miter; stroke-linecap: square"/>
   </g>
   <g id="patch_4">
    <path d="M 245.376 158.4 
L 245.376 27.72 
" style="fill: none; stroke: #272727; stroke-width: 0.9; stroke-linejoin: miter; stroke-linecap: square"/>
   </g>
   <g id="patch_5">
    <path d="M 46.008 158.4 
L 245.376 158.4 
" style="fill: none; stroke: #272727; stroke-width: 0.9; stroke-linejoin: miter; stroke-linecap: square"/>
   </g>
   <g id="patch_6">
    <path d="M 46.008 27.72 
L 245.376 27.72 
" style="fill: none; stroke: #272727; stroke-width: 0.9; stroke-linejoin: miter; stroke-linecap: square"/>
   </g>
   <g id="line2d_65">
    <path d="M 55.070182 156.207173 
L 72.45385 156.209568 
L 74.116636 156.25403 
L 75.930584 156.264342 
L 78.198019 156.225985 
L 80.314291 156.264878 
L 82.581726 156.214294 
L 84.849161 156.252088 
L 86.965434 156.197072 
L 89.232869 156.242956 
L 91.349142 156.169984 
L 93.616577 156.222094 
L 95.884012 156.134027 
L 98.000284 156.178947 
L 100.267719 156.054503 
L 102.383992 156.092947 
L 104.802589 155.918147 
L 106.616537 155.941845 
L 109.639784 155.662432 
L 110.849082 155.634804 
L 112.058381 155.354784 
L 113.26768 155.122795 
L 115.535115 154.892164 
L 118.860686 153.844724 
L 119.616498 153.583264 
L 120.372309 153.091024 
L 122.488582 151.497009 
L 123.546718 150.830516 
L 124.151368 150.18868 
L 124.907179 148.980736 
L 127.930426 143.034166 
L 128.383913 141.523499 
L 128.988562 138.539568 
L 129.593212 134.281659 
L 130.588364 125.149465 
L 131.860647 113.65124 
L 132.616458 108.94511 
L 133.221108 106.492611 
L 133.976919 104.498737 
L 137.000166 98.164916 
L 137.755978 97.239979 
L 138.814114 96.419291 
L 140.023413 95.38979 
L 141.232711 94.366957 
L 141.988523 94.024476 
L 143.348984 93.781272 
L 144.558283 93.40076 
L 145.616419 93.119208 
L 146.37223 93.152551 
L 148.94199 93.543372 
L 149.848964 93.687742 
L 150.604776 94.058619 
L 154.232672 96.594435 
L 154.988483 97.659359 
L 157.558243 102.237892 
L 158.162892 103.592508 
L 158.767542 105.655916 
L 159.372191 108.734676 
L 160.128003 114.01279 
L 162.093113 128.760345 
L 162.697762 131.499211 
L 163.302412 133.158939 
L 163.907061 134.084584 
L 166.174496 136.767565 
L 167.08147 137.805753 
L 167.686119 138.202291 
L 168.441931 138.426223 
L 169.65123 138.758486 
L 172.220989 139.84261 
L 174.639587 140.071361 
L 176.302372 140.467329 
L 177.511671 140.420103 
L 178.72097 140.450242 
L 181.290729 140.738116 
L 183.25584 140.680349 
L 185.674437 140.868211 
L 187.79071 140.794544 
L 190.058145 140.932969 
L 192.325579 140.855045 
L 194.441852 140.966325 
L 196.860449 140.889331 
L 198.976722 140.975038 
L 201.395319 140.910258 
L 203.36043 140.985996 
L 205.930189 140.92411 
L 207.8953 140.98436 
L 210.313897 140.922757 
L 212.43017 140.980998 
L 214.697605 140.920262 
L 216.96504 140.976844 
L 219.232475 140.926725 
L 221.348747 140.981894 
L 223.767345 140.93244 
L 225.883617 140.977569 
L 228.151052 140.927695 
L 230.418487 140.973136 
L 232.685922 140.932455 
L 234.802195 140.978217 
L 236.313818 140.901459 
L 236.313818 140.901459 
" clip-path="url(#p746fbfa495)" style="fill: none; stroke: #f26b38; stroke-width: 2; stroke-linecap: square"/>
   </g>
   <g id="line2d_66">
    <path d="M 55.070182 47.435075 
L 72.45385 47.432679 
L 74.116636 47.388218 
L 75.930584 47.377905 
L 78.198019 47.416263 
L 80.314291 47.377369 
L 82.581726 47.427954 
L 84.849161 47.390159 
L 86.965434 47.445176 
L 89.232869 47.399292 
L 91.349142 47.472263 
L 93.616577 47.420153 
L 95.884012 47.508221 
L 98.000284 47.463301 
L 100.267719 47.587744 
L 102.383992 47.5493 
L 104.802589 47.724101 
L 106.616537 47.700402 
L 109.639784 47.979815 
L 110.849082 48.007443 
L 112.058381 48.287464 
L 113.26768 48.519453 
L 115.535115 48.750083 
L 118.860686 49.797524 
L 119.616498 50.058983 
L 120.372309 50.551223 
L 122.488582 52.145238 
L 123.546718 52.811731 
L 124.151368 53.453567 
L 124.907179 54.661511 
L 127.930426 60.608082 
L 128.383913 62.118748 
L 128.988562 65.10268 
L 129.593212 69.360589 
L 130.588364 78.492783 
L 131.860647 89.991008 
L 132.616458 94.697137 
L 133.221108 97.149636 
L 133.976919 99.143511 
L 137.000166 105.477332 
L 137.755978 106.402268 
L 138.814114 107.222957 
L 140.023413 108.252458 
L 141.232711 109.275291 
L 141.988523 109.617771 
L 143.348984 109.860976 
L 144.558283 110.241487 
L 145.616419 110.523039 
L 146.37223 110.489697 
L 148.94199 110.098876 
L 149.848964 109.954505 
L 150.604776 109.583628 
L 154.232672 107.047813 
L 154.988483 105.982888 
L 157.558243 101.404356 
L 158.162892 100.04974 
L 158.767542 97.986332 
L 159.372191 94.907572 
L 160.128003 89.629457 
L 162.093113 74.881903 
L 162.697762 72.143036 
L 163.302412 70.483309 
L 163.907061 69.557664 
L 166.174496 66.874683 
L 167.08147 65.836495 
L 167.686119 65.439956 
L 168.441931 65.216025 
L 169.65123 64.883762 
L 172.220989 63.799638 
L 174.639587 63.570887 
L 176.302372 63.174919 
L 177.511671 63.222145 
L 178.72097 63.192005 
L 181.290729 62.904132 
L 183.25584 62.961899 
L 185.674437 62.774037 
L 187.79071 62.847703 
L 190.058145 62.709278 
L 192.325579 62.787203 
L 194.441852 62.675923 
L 196.860449 62.752917 
L 198.976722 62.66721 
L 201.395319 62.73199 
L 203.36043 62.656252 
L 205.930189 62.718137 
L 207.8953 62.657888 
L 210.313897 62.71949 
L 212.43017 62.66125 
L 214.697605 62.721985 
L 216.96504 62.665403 
L 219.232475 62.715522 
L 221.348747 62.660354 
L 223.767345 62.709807 
L 225.883617 62.664679 
L 228.151052 62.714553 
L 230.418487 62.669112 
L 232.685922 62.709793 
L 234.802195 62.664031 
L 236.313818 62.740789 
L 236.313818 62.740789 
" clip-path="url(#p746fbfa495)" style="fill: none; stroke: #f2b134; stroke-width: 2; stroke-linecap: square"/>
   </g>
   <g id="text_16">
    <text style="font: 9.8px 'Helvetica', 'Nimbus Sans', 'Arial', 'DejaVu Sans', sans-serif; text-anchor: start" x="46.008" y="21.72" transform="rotate(-0 46.008 21.72)">Local reactant concentration</text>
   </g>
   <g id="legend_1">
    <g id="line2d_67">
     <path d="M 160.957 36.808 
L 166.992 36.808 
L 173.027 36.808 
" style="fill: none; stroke: #f26b38; stroke-width: 2; stroke-linecap: square"/>
    </g>
    <g id="text_17">
     <!-- $c_{\mathrm{R1}}/c_{\mathrm{bulk}}$ (with EDL) -->
     <g transform="translate(178.707 39.293)">
      <text>
       <tspan style="font: italic 7.1px 'Nimbus Sans'" x="0 12.039398" y="-0.828125">cc</tspan>
       <tspan style="font: 4.97px 'Nimbus Sans'" x="3.546875 7.132057 15.586273 18.347158 21.108044 22.210414" y="0.21823749999999986">R1bulk</tspan>
       <tspan style="font: 7.1px 'Nimbus Sans'" x="10.067337 24.86762 26.839681 29.201894 34.323583 35.898397 37.870458 41.81458 43.786642 48.518178 53.639867 57.58399" y="-0.828125">/ (with EDL)</tspan>
      </text>
     </g>
    </g>
    <g id="line2d_68">
     <path d="M 160.957 47.103 
L 166.992 47.103 
L 173.027 47.103 
" style="fill: none; stroke: #f2b134; stroke-width: 2; stroke-linecap: square"/>
    </g>
    <g id="text_18">
     <!-- $c_{\mathrm{O2}}/c_{\mathrm{bulk}}$ (with EDL) -->
     <g transform="translate(178.707 49.588)">
      <text>
       <tspan style="font: italic 7.1px 'Nimbus Sans'" x="0 12.317471" y="-0.828125">cc</tspan>
       <tspan style="font: 4.97px 'Nimbus Sans'" x="3.546875 7.41013 15.864346 18.625231 21.386117 22.488487" y="0.21823749999999986">O2bulk</tspan>
       <tspan style="font: 7.1px 'Nimbus Sans'" x="10.34541 25.145693 27.117754 29.479967 34.601656 36.17647 38.148531 42.092653 44.064715 48.796251 53.91794 57.862063" y="-0.828125">/ (with EDL)</tspan>
      </text>
     </g>
    </g>
    <g id="line2d_69">
     <path d="M 160.957 57.391344 
L 166.992 57.391344 
L 173.027 57.391344 
" style="fill: none; stroke-dasharray: 6.4,3.2; stroke-dashoffset: 0; stroke: #12355b; stroke-width: 1.6"/>
    </g>
    <g id="text_19">
     <text style="font: 7.1px 'Helvetica', 'Nimbus Sans', 'Arial', 'DejaVu Sans', sans-serif; text-anchor: start" x="178.707" y="59.876344" transform="rotate(-0 178.707 59.876344)">without EDL</text>
    </g>
   </g>
  </g>
 </g>
 <defs>
  <clipPath id="p746fbfa495">
   <rect x="46.008" y="27.72" width="199.368" height="130.68"/>
  </clipPath>
 </defs>
</svg>
