<?xml version="1.0" encoding="utf-8" standalone="no"?>
<!DOCTYPE svg PUBLIC "-//W3C//DTD SVG 1.1//EN"
  "http://www.w3.org/Graphics/SVG/1.1/DTD/svg11.dtd">
<svg xmlns:xlink="http://www.w3.org/1999/xlink" width="263.359719pt" height="174.436234pt" viewBox="0 0 263.359719 174.436234" xmlns="http://www.w3.org/2000/svg" version="1.1">
 <metadata>
  <rdf:RDF xmlns:dc="http://purl.org/dc/elements/1.1/" xmlns:cc="http://creativecommons.org/ns#" xmlns:rdf="http://www.w3.org/1999/02/22-rdf-syntax-ns#">
   <cc:Work>
    <dc:type rdf:resource="http://purl.org/dc/dcmitype/StillImage"/>
    <dc:date>2026-06-22T22:40:29.510286</dc:date>
    <dc:format>image/svg+xml</dc:format>
    <dc:creator>
     <cc:Agent>
      <dc:title>Matplotlib v3.6.3, https://matplotlib.org/</dc:title>
     </cc:Agent>
    </dc:creator>
   </cc:Work>
  </rdf:RDF>
 </metadata>
 <defs>
  <style type="text/css">*{stroke-linejoin: round; stroke-linecap: butt}</style>
 </defs>
 <g id="figure_1">
  <g id="patch_1">
   <path d="M 0 174.436234 
L 263.359719 174.436234 
L 263.359719 0 
L 0 0 
z
" style="fill: #ffffff"/>
  </g>
  <g id="axes_1">
   <g id="patch_2">
    <path d="M 45.919719 141.520812 
L 256.159719 141.520812 
L 256.159719 20.344812 
L 45.919719 20.344812 
z
" style="fill: #ffffff"/>
   </g>
   <g id="matplotlib.axis_1">
    <g id="xtick_1">
     <g id="line2d_1">
      <defs>
       <path id="mfb1c33c3f5" d="M 0 0 
L 0 3.4 
" style="stroke: #111827; stroke-width: 0.85"/>
      </defs>
      <g>
       <use xlink:href="#mfb1c33c3f5" x="55.476082" y="141.520812" style="fill: #111827; stroke: #111827; stroke-width: 0.85"/>
      </g>
     </g>
     <g id="text_1">
      <text style="fill: #111827; font: 8.2px 'Helvetica', 'Nimbus Sans', 'Arial', 'DejaVu Sans', sans-serif; text-anchor: middle" x="55.476082" y="153.399125" transform="rotate(-0 55.476082 153.399125)">0</text>
     </g>
    </g>
    <g id="xtick_2">
     <g id="line2d_2">
      <g>
       <use xlink:href="#mfb1c33c3f5" x="87.330628" y="141.520812" style="fill: #111827; stroke: #111827; stroke-width: 0.85"/>
      </g>
     </g>
     <g id="text_2">
      <text style="fill: #111827; font: 8.2px 'Helvetica', 'Nimbus Sans', 'Arial', 'DejaVu Sans', sans-serif; text-anchor: middle" x="87.330628" y="153.399125" transform="rotate(-0 87.330628 153.399125)">10</text>
     </g>
    </g>
    <g id="xtick_3">
     <g id="line2d_3">
      <g>
       <use xlink:href="#mfb1c33c3f5" x="119.185173" y="141.520812" style="fill: #111827; stroke: #111827; stroke-width: 0.85"/>
      </g>
     </g>
     <g id="text_3">
      <text style="fill: #111827; font: 8.2px 'Helvetica', 'Nimbus Sans', 'Arial', 'DejaVu Sans', sans-serif; text-anchor: middle" x="119.185173" y="153.399125" transform="rotate(-0 119.185173 153.399125)">20</text>
     </g>
    </g>
    <g id="xtick_4">
     <g id="line2d_4">
      <g>
       <use xlink:href="#mfb1c33c3f5" x="151.039719" y="141.520812" style="fill: #111827; stroke: #111827; stroke-width: 0.85"/>
      </g>
     </g>
     <g id="text_4">
      <text style="fill: #111827; font: 8.2px 'Helvetica', 'Nimbus Sans', 'Arial', 'DejaVu Sans', sans-serif; text-anchor: middle" x="151.039719" y="153.399125" transform="rotate(-0 151.039719 153.399125)">30</text>
     </g>
    </g>
    <g id="xtick_5">
     <g id="line2d_5">
      <g>
       <use xlink:href="#mfb1c33c3f5" x="182.894264" y="141.520812" style="fill: #111827; stroke: #111827; stroke-width: 0.85"/>
      </g>
     </g>
     <g id="text_5">
      <text style="fill: #111827; font: 8.2px 'Helvetica', 'Nimbus Sans', 'Arial', 'DejaVu Sans', sans-serif; text-anchor: middle" x="182.894264" y="153.399125" transform="rotate(-0 182.894264 153.399125)">40</text>
     </g>
    </g>
    <g id="xtick_6">
     <g id="line2d_6">
      <g>
       <use xlink:href="#mfb1c33c3f5" x="214.74881" y="141.520812" style="fill: #111827; stroke: #111827; stroke-width: 0.85"/>
      </g>
     </g>
     <g id="text_6">
      <text style="fill: #111827; font: 8.2px 'Helvetica', 'Nimbus Sans', 'Arial', 'DejaVu Sans', sans-serif; text-anchor: middle" x="214.74881" y="153.399125" transform="rotate(-0 214.74881 153.399125)">50</text>
     </g>
    </g>
    <g id="xtick_7">
     <g id="line2d_7">
      <g>
       <use xlink:href="#mfb1c33c3f5" x="246.603355" y="141.520812" style="fill: #111827; stroke: #111827; stroke-width: 0.85"/>
      </g>
     </g>
     <g id="text_7">
      <text style="fill: #111827; font: 8.2px 'Helvetica', 'Nimbus Sans', 'Arial', 'DejaVu Sans', sans-serif; text-anchor: middle" x="246.603355" y="153.399125" transform="rotate(-0 246.603355 153.399125)">60</text>
     </g>
    </g>
    <g id="text_8">
     <text style="fill: #111827; font: 8.5px 'Helvetica', 'Nimbus Sans', 'Arial', 'DejaVu Sans', sans-serif; text-anchor: middle" x="151.039719" y="165.3835" transform="rotate(-0 151.039719 165.3835)">x [nm]</text>
    </g>
   </g>
   <g id="matplotlib.axis_2">
    <g id="ytick_1">
     <g id="line2d_8">
      <defs>
       <path id="m2642e35cdc" d="M 0 0 
L -3.4 0 
" style="stroke: #111827; stroke-width: 0.85"/>
      </defs>
      <g>
       <use xlink:href="#m2642e35cdc" x="45.919719" y="132.803726" style="fill: #111827; stroke: #111827; stroke-width: 0.85"/>
      </g>
     </g>
     <g id="text_9">
      <text style="fill: #111827; font: 8.2px 'Helvetica', 'Nimbus Sans', 'Arial', 'DejaVu Sans', sans-serif; text-anchor: end" x="40.019719" y="135.792883" transform="rotate(-0 40.019719 135.792883)">−0.15</text>
     </g>
    </g>
    <g id="ytick_2">
     <g id="line2d_9">
      <g>
       <use xlink:href="#m2642e35cdc" x="45.919719" y="101.155359" style="fill: #111827; stroke: #111827; stroke-width: 0.85"/>
      </g>
     </g>
     <g id="text_10">
      <text style="fill: #111827; font: 8.2px 'Helvetica', 'Nimbus Sans', 'Arial', 'DejaVu Sans', sans-serif; text-anchor: end" x="40.019719" y="104.144516" transform="rotate(-0 40.019719 104.144516)">−0.10</text>
     </g>
    </g>
    <g id="ytick_3">
     <g id="line2d_10">
      <g>
       <use xlink:href="#m2642e35cdc" x="45.919719" y="69.506992" style="fill: #111827; stroke: #111827; stroke-width: 0.85"/>
      </g>
     </g>
     <g id="text_11">
      <text style="fill: #111827; font: 8.2px 'Helvetica', 'Nimbus Sans', 'Arial', 'DejaVu Sans', sans-serif; text-anchor: end" x="40.019719" y="72.496149" transform="rotate(-0 40.019719 72.496149)">−0.05</text>
     </g>
    </g>
    <g id="ytick_4">
     <g id="line2d_11">
      <g>
       <use xlink:href="#m2642e35cdc" x="45.919719" y="37.858625" style="fill: #111827; stroke: #111827; stroke-width: 0.85"/>
      </g>
     </g>
     <g id="text_12">
      <text style="fill: #111827; font: 8.2px 'Helvetica', 'Nimbus Sans', 'Arial', 'DejaVu Sans', sans-serif; text-anchor: end" x="40.019719" y="40.847782" transform="rotate(-0 40.019719 40.847782)">0.00</text>
     </g>
    </g>
    <g id="text_13">
     <!-- $\phi_{\mathrm{RP}}(x)$ [V] -->
     <g style="fill: #111827" transform="translate(13.405 98.867812) rotate(-90)">
      <text>
       <tspan style="font: italic 8.5px 'Nimbus Sans'" x="0 16.029811" y="-0.796875">ϕx</tspan>
       <tspan style="font: 5.95px 'Nimbus Sans'" x="4.725998 9.021893" y="0.4558125000000004">RP</tspan>
       <tspan style="font: 8.5px 'Nimbus Sans'" x="13.199321 20.279811 23.110301 25.473292 27.836284 33.505778" y="-0.796875">() [V]</tspan>
      </text>
     </g>
    </g>
   </g>
   <g id="line2d_12">
    <path d="M 135.112446 141.520812 
L 135.112446 20.344812 
" clip-path="url(#pb7eb38041e)" style="fill: none; stroke-dasharray: 2.7,1.8; stroke-dashoffset: 0; stroke: #767676; stroke-opacity: 0.85; stroke-width: 0.9"/>
   </g>
   <g id="line2d_13">
    <path d="M 166.966991 141.520812 
L 166.966991 20.344812 
" clip-path="url(#pb7eb38041e)" style="fill: none; stroke-dasharray: 2.7,1.8; stroke-dashoffset: 0; stroke: #767676; stroke-opacity: 0.85; stroke-width: 0.9"/>
   </g>
   <g id="line2d_14">
    <path d="M 55.476082 37.858625 
L 246.603355 37.858625 
L 246.603355 37.858625 
" clip-path="url(#pb7eb38041e)" style="fill: none; stroke: #12355b; stroke-width: 1.8; stroke-linecap: square"/>
   </g>
   <g id="patch_3">
    <path d="M 45.919719 141.520812 
L 45.919719 20.344812 
" style="fill: none; stroke: #272727; stroke-width: 0.9; stroke-linejoin: miter; stroke-linecap: square"/>
   </g>
   <g id="patch_4">
    <path d="M 256.159719 141.520812 
L 256.159719 20.344812 
" style="fill: none; stroke: #272727; stroke-width: 0.9; stroke-linejoin: miter; stroke-linecap: square"/>
   </g>
   <g id="patch_5">
    <path d="M 45.919719 141.520812 
L 256.159719 141.520812 
" style="fill: none; stroke: #272727; stroke-width: 0.9; stroke-linejoin: miter; stroke-linecap: square"/>
   </g>
   <g id="patch_6">
    <path d="M 45.919719 20.344812 
L 256.159719 20.344812 
" style="fill: none; stroke: #272727; stroke-width: 0.9; stroke-linejoin: miter; stroke-linecap: square"/>
   </g>
   <g id="line2d_15">
    <path d="M 55.476082 135.859271 
L 57.070138 135.976846 
L 58.504788 135.983156 
L 60.736466 135.879383 
L 63.286955 135.975812 
L 65.359227 135.872714 
L 68.069122 135.967328 
L 69.981989 135.865151 
L 72.851289 135.957098 
L 74.764156 135.865076 
L 77.47405 135.961217 
L 79.386917 135.851886 
L 82.256217 135.944894 
L 84.009679 135.833684 
L 87.038384 135.920453 
L 88.63244 135.806604 
L 91.820551 135.881513 
L 93.255201 135.763571 
L 96.602718 135.816044 
L 98.037368 135.695028 
L 101.066074 135.760139 
L 102.66013 135.56458 
L 104.254185 135.72037 
L 105.210619 135.688374 
L 107.920513 135.355053 
L 109.514569 135.445294 
L 110.471002 135.238263 
L 111.905652 134.886386 
L 113.021491 134.909551 
L 114.13733 134.895159 
L 114.934358 134.658428 
L 116.847225 133.967803 
L 119.078903 133.650036 
L 119.875931 133.154111 
L 121.310581 132.19905 
L 122.267014 131.883609 
L 123.223448 131.512515 
L 123.86107 130.990653 
L 124.658098 129.995271 
L 126.092748 128.111517 
L 128.005615 125.986327 
L 128.643237 124.613406 
L 129.440265 122.245612 
L 131.512537 115.785514 
L 132.150159 113.578689 
L 132.628376 111.233556 
L 133.106593 107.919512 
L 133.744215 101.608988 
L 134.541243 90.757066 
L 136.772921 57.936404 
L 137.410543 52.182781 
L 138.048165 48.32799 
L 138.845193 45.100779 
L 142.033304 34.239738 
L 142.670927 33.017435 
L 143.62736 31.779654 
L 144.743199 30.286554 
L 146.337255 28.014895 
L 146.974877 27.507329 
L 147.771905 27.216449 
L 149.047149 26.810656 
L 151.119422 25.852838 
L 151.757044 25.939578 
L 154.148127 26.63007 
L 155.104561 26.774026 
L 155.742183 27.133243 
L 156.379805 27.767524 
L 158.611483 30.312594 
L 159.567916 31.3344 
L 160.205539 32.438189 
L 160.843161 34.02073 
L 163.553056 42.179485 
L 164.190678 44.595251 
L 164.668895 47.20059 
L 165.306517 52.209654 
L 165.944139 59.118109 
L 167.219384 76.322154 
L 168.175817 87.8985 
L 168.813439 93.302624 
L 169.451062 96.700122 
L 169.929278 98.227884 
L 170.5669 99.52041 
L 171.842145 101.885629 
L 173.595606 105.567447 
L 174.233228 106.275942 
L 174.870851 106.621357 
L 176.146095 107.158556 
L 176.943123 107.81696 
L 178.218368 108.914224 
L 178.85599 109.171441 
L 179.653018 109.223107 
L 180.768857 109.297029 
L 181.565884 109.607415 
L 183.000535 110.255772 
L 183.797562 110.322365 
L 185.710429 110.249873 
L 186.826268 110.589723 
L 187.782702 110.817012 
L 188.739135 110.7745 
L 190.173785 110.635421 
L 191.130218 110.801728 
L 192.564868 111.065058 
L 193.521302 110.981118 
L 194.955952 110.845569 
L 196.071791 111.021957 
L 197.347035 111.176699 
L 198.62228 111.023485 
L 199.738119 110.955095 
L 201.172769 111.167979 
L 202.288608 111.216647 
L 204.998503 111.066301 
L 206.911369 111.245413 
L 209.940075 111.125933 
L 211.534131 111.259708 
L 214.881648 111.17192 
L 216.316298 111.259803 
L 219.345003 111.145804 
L 220.939059 111.264534 
L 224.286576 111.179784 
L 225.721226 111.260726 
L 228.909337 111.170967 
L 230.503393 111.255863 
L 233.372693 111.143277 
L 235.126154 111.259581 
L 238.314266 111.171225 
L 239.908321 111.25522 
L 242.937027 111.161435 
L 244.531083 111.25919 
L 246.603355 111.089153 
L 246.603355 111.089153 
" clip-path="url(#pb7eb38041e)" style="fill: none; stroke: #f26b38; stroke-width: 2; stroke-linecap: square"/>
   </g>
   <g id="text_14">
    <text style="font: 9.8px 'Helvetica', 'Nimbus Sans', 'Arial', 'DejaVu Sans', sans-serif; text-anchor: start" x="45.919719" y="14.344812" transform="rotate(-0 45.919719 14.344812)">Reaction-plane potential</text>
   </g>
   <g id="legend_1">
    <g id="line2d_16">
     <path d="M 183.433469 30.577312 
L 191.433469 30.577312 
L 199.433469 30.577312 
" style="fill: none; stroke: #f26b38; stroke-width: 2; stroke-linecap: square"/>
    </g>
    <g id="text_15">
     <text style="font: 8px 'Helvetica', 'Nimbus Sans', 'Arial', 'DejaVu Sans', sans-serif; text-anchor: start" x="205.833469" y="33.377312" transform="rotate(-0 205.833469 33.377312)">with EDL</text>
    </g>
    <g id="line2d_17">
     <path d="M 183.433469 42.153562 
L 191.433469 42.153562 
L 199.433469 42.153562 
" style="fill: none; stroke: #12355b; stroke-width: 1.8; stroke-linecap: square"/>
    </g>
    <g id="text_16">
     <text style="font: 8px 'Helvetica', 'Nimbus Sans', 'Arial', 'DejaVu Sans', sans-serif; text-anchor: start" x="205.833469" y="44.953562" transform="rotate(-0 205.833469 44.953562)">without EDL</text>
    </g>
   </g>
  </g>
 </g>
 <defs>
  <clipPath id="pb7eb38041e">
   <rect x="45.919719" y="20.344812" width="210.24" height="121.176"/>
  </clipPath>
 </defs>
</svg>
